<?xml version="1.0" encoding="UTF-8" standalone="no"?>
<!DOCTYPE svg PUBLIC "-//W3C//DTD SVG 1.1//EN"
 "http://www.w3.org/Graphics/SVG/1.1/DTD/svg11.dtd">
<!-- Generated by graphviz version 2.40.1 (20161225.0304)
 -->
<!-- Title: public.posts_tags Pages: 1 -->
<svg width="672pt" height="692pt"
 viewBox="0.00 0.00 671.50 692.00" xmlns="http://www.w3.org/2000/svg" xmlns:xlink="http://www.w3.org/1999/xlink">
<g id="graph0" class="graph" transform="scale(1 1) rotate(0) translate(4 688)">
<title>public.posts_tags</title>
<polygon fill="#ffffff" stroke="transparent" points="-4,4 -4,-688 667.5,-688 667.5,4 -4,4"/>
<!-- public.posts_tags -->
<g id="node1" class="node">
<title>public.posts_tags</title>
<polygon fill="#efefef" stroke="transparent" points="219,-592 219,-638 469,-638 469,-592 219,-592"/>
<polygon fill="none" stroke="#000000" points="219,-592 219,-638 469,-638 469,-592 219,-592"/>
<text text-anchor="start" x="225.8508" y="-615.8" font-family="Arial Bold" font-size="18.00" fill="#000000">public.posts_tags</text>
<text text-anchor="start" x="364.8954" y="-615.8" font-family="Arial" font-size="14.00" fill="#000000"> </text>
<text text-anchor="start" x="368.786" y="-615.8" font-family="Arial" font-size="14.00" fill="#666666">[BASE TABLE]</text>
<text text-anchor="start" x="310.4301" y="-601.4" font-family="Arial" font-size="14.00" fill="#333333">投稿&#45;タグ</text>
<polygon fill="none" stroke="#000000" points="219,-562 219,-592 469,-592 469,-562 219,-562"/>
<text text-anchor="start" x="226" y="-573.4" font-family="Arial" font-size="14.00" fill="#000000">post_id </text>
<text text-anchor="start" x="275.0182" y="-573.4" font-family="Arial" font-size="14.00" fill="#666666">[bigint]</text>
<text text-anchor="start" x="316.251" y="-573.4" font-family="Arial" font-size="14.00" fill="#000000"> 投稿ID</text>
<polygon fill="none" stroke="#000000" points="219,-532 219,-562 469,-562 469,-532 219,-532"/>
<text text-anchor="start" x="226" y="-543.4" font-family="Arial" font-size="14.00" fill="#000000">tag_id </text>
<text text-anchor="start" x="268.0182" y="-543.4" font-family="Arial" font-size="14.00" fill="#666666">[bigint]</text>
<text text-anchor="start" x="309.251" y="-543.4" font-family="Arial" font-size="14.00" fill="#000000"> タグID</text>
<polygon fill="none" stroke="#000000" stroke-width="3" points="217.5,-530.5 217.5,-639.5 470.5,-639.5 470.5,-530.5 217.5,-530.5"/>
</g>
<!-- public.posts -->
<g id="node2" class="node">
<title>public.posts</title>
<polygon fill="#efefef" stroke="transparent" points="43,-361 43,-407 303,-407 303,-361 43,-361"/>
<polygon fill="none" stroke="#000000" points="43,-361 43,-407 303,-407 303,-361 43,-361"/>
<text text-anchor="start" x="76.8612" y="-384.8" font-family="Arial Bold" font-size="18.00" fill="#000000">public.posts</text>
<text text-anchor="start" x="171.885" y="-384.8" font-family="Arial" font-size="14.00" fill="#000000"> </text>
<text text-anchor="start" x="175.7756" y="-384.8" font-family="Arial" font-size="14.00" fill="#666666">[BASE TABLE]</text>
<text text-anchor="start" x="157.0512" y="-370.4" font-family="Arial" font-size="14.00" fill="#333333">投稿</text>
<polygon fill="none" stroke="#000000" points="43,-331 43,-361 303,-361 303,-331 43,-331"/>
<text text-anchor="start" x="50" y="-342.4" font-family="Arial" font-size="14.00" fill="#000000">post_id </text>
<text text-anchor="start" x="99.0182" y="-342.4" font-family="Arial" font-size="14.00" fill="#666666">[bigint]</text>
<text text-anchor="start" x="140.251" y="-342.4" font-family="Arial" font-size="14.00" fill="#000000"> 投稿ID</text>
<polygon fill="none" stroke="#000000" points="43,-301 43,-331 303,-331 303,-301 43,-301"/>
<text text-anchor="start" x="50" y="-312.4" font-family="Arial" font-size="14.00" fill="#000000">body </text>
<text text-anchor="start" x="84.2384" y="-312.4" font-family="Arial" font-size="14.00" fill="#666666">[text]</text>
<text text-anchor="start" x="114.5834" y="-312.4" font-family="Arial" font-size="14.00" fill="#000000"> 投稿内容</text>
<polygon fill="none" stroke="#000000" points="43,-271 43,-301 303,-301 303,-271 43,-271"/>
<text text-anchor="start" x="49.8336" y="-282.4" font-family="Arial" font-size="14.00" fill="#000000">author_user_id </text>
<text text-anchor="start" x="147.086" y="-282.4" font-family="Arial" font-size="14.00" fill="#666666">[bigint]</text>
<text text-anchor="start" x="188.3188" y="-282.4" font-family="Arial" font-size="14.00" fill="#000000"> 作成ユーザID</text>
</g>
<!-- public.posts_tags&#45;&gt;public.posts -->
<g id="edge1" class="edge">
<title>public.posts_tags:post_id&#45;&gt;public.posts:post_id</title>
<path fill="none" stroke="#000000" stroke-dasharray="5,2" d="M208.7775,-575.4376C182.1453,-566.0451 198.9099,-516.4674 219,-486 241.3595,-452.0909 280.6405,-483.9091 303,-450 328.4449,-411.4118 349.2222,-346 303,-346"/>
<polygon fill="#000000" stroke="#000000" points="209.1148,-575.4891 218.3201,-581.4483 214.0574,-576.2446 219,-577 219,-577 219,-577 214.0574,-576.2446 219.6799,-572.5517 209.1148,-575.4891 209.1148,-575.4891"/>
<text text-anchor="start" x="129.3245" y="-587" font-family="Arial" font-size="10.00" fill="#000000">Additional Relation</text>
</g>
<!-- public.tags -->
<g id="node4" class="node">
<title>public.tags</title>
<polygon fill="#efefef" stroke="transparent" points="408,-346 408,-392 621,-392 621,-346 408,-346"/>
<polygon fill="none" stroke="#000000" points="408,-346 408,-392 621,-392 621,-346 408,-346"/>
<text text-anchor="start" x="422.8612" y="-369.8" font-family="Arial Bold" font-size="18.00" fill="#000000">public.tags</text>
<text text-anchor="start" x="508.885" y="-369.8" font-family="Arial" font-size="14.00" fill="#000000"> </text>
<text text-anchor="start" x="512.7756" y="-369.8" font-family="Arial" font-size="14.00" fill="#666666">[BASE TABLE]</text>
<text text-anchor="start" x="499.2092" y="-355.4" font-family="Arial" font-size="14.00" fill="#333333">タグ</text>
<polygon fill="none" stroke="#000000" points="408,-316 408,-346 621,-346 621,-316 408,-316"/>
<text text-anchor="start" x="415" y="-327.4" font-family="Arial" font-size="14.00" fill="#000000">tag_id </text>
<text text-anchor="start" x="457.0182" y="-327.4" font-family="Arial" font-size="14.00" fill="#666666">[bigint]</text>
<text text-anchor="start" x="498.251" y="-327.4" font-family="Arial" font-size="14.00" fill="#000000"> タグID</text>
<polygon fill="none" stroke="#000000" points="408,-286 408,-316 621,-316 621,-286 408,-286"/>
<text text-anchor="start" x="414.7997" y="-297.4" font-family="Arial" font-size="14.00" fill="#000000">tag_name </text>
<text text-anchor="start" x="480.9371" y="-297.4" font-family="Arial" font-size="14.00" fill="#666666">[varchar(255)]</text>
<text text-anchor="start" x="568.0563" y="-297.4" font-family="Arial" font-size="14.00" fill="#000000"> タグ名</text>
</g>
<!-- public.posts_tags&#45;&gt;public.tags -->
<g id="edge3" class="edge">
<title>public.posts_tags:tag_id&#45;&gt;public.tags:tag_id</title>
<path fill="none" stroke="#000000" stroke-dasharray="5,2" d="M478.7567,-544.5154C491.3276,-535.9027 478.6859,-506.7232 469,-486 454.0369,-453.986 422.9631,-467.014 408,-435 388.4283,-393.1259 361.7778,-331 408,-331"/>
<polygon fill="#000000" stroke="#000000" points="478.6907,-544.5321 467.8895,-542.6392 473.8454,-545.7661 469,-547 469,-547 469,-547 473.8454,-545.7661 470.1105,-551.3608 478.6907,-544.5321 478.6907,-544.5321"/>
<text text-anchor="start" x="476.3245" y="-557" font-family="Arial" font-size="10.00" fill="#000000">Additional Relation</text>
</g>
<!-- public.users -->
<g id="node3" class="node">
<title>public.users</title>
<polygon fill="#efefef" stroke="transparent" points="49,-103 49,-149 296,-149 296,-103 49,-103"/>
<polygon fill="none" stroke="#000000" points="49,-103 49,-149 296,-149 296,-103 49,-103"/>
<text text-anchor="start" x="75.8662" y="-126.8" font-family="Arial Bold" font-size="18.00" fill="#000000">public.users</text>
<text text-anchor="start" x="171.88" y="-126.8" font-family="Arial" font-size="14.00" fill="#000000"> </text>
<text text-anchor="start" x="175.7706" y="-126.8" font-family="Arial" font-size="14.00" fill="#666666">[BASE TABLE]</text>
<text text-anchor="start" x="144.2466" y="-112.4" font-family="Arial" font-size="14.00" fill="#333333">ユーザ</text>
<polygon fill="none" stroke="#000000" points="49,-73 49,-103 296,-103 296,-73 49,-73"/>
<text text-anchor="start" x="56" y="-84.4" font-family="Arial" font-size="14.00" fill="#000000">user_id </text>
<text text-anchor="start" x="105.7882" y="-84.4" font-family="Arial" font-size="14.00" fill="#666666">[bigint]</text>
<text text-anchor="start" x="147.021" y="-84.4" font-family="Arial" font-size="14.00" fill="#000000"> ユーザID</text>
<polygon fill="none" stroke="#000000" points="49,-43 49,-73 296,-73 296,-43 49,-43"/>
<text text-anchor="start" x="55.9521" y="-54.4" font-family="Arial" font-size="14.00" fill="#000000">user_name </text>
<text text-anchor="start" x="129.8595" y="-54.4" font-family="Arial" font-size="14.00" fill="#666666">[varchar(255)]</text>
<text text-anchor="start" x="216.9787" y="-54.4" font-family="Arial" font-size="14.00" fill="#000000"> ユーザ名</text>
</g>
<!-- public.posts&#45;&gt;public.users -->
<g id="edge2" class="edge">
<title>public.posts:author_user_id&#45;&gt;public.users:user_id</title>
<path fill="none" stroke="#000000" stroke-dasharray="5,2" d="M173.8563,-260.9613C183.2107,-210.5781 266.619,-245.7899 296,-192 318.1575,-151.4347 342.2222,-88 296,-88"/>
<polygon fill="#000000" stroke="#000000" points="173.85,-261.0362 168.5163,-270.6175 173.425,-266.0181 173,-271 173,-271 173,-271 173.425,-266.0181 177.4837,-271.3825 173.85,-261.0362 173.85,-261.0362"/>
<text text-anchor="start" x="156.0745" y="-255" font-family="Arial" font-size="10.00" fill="#000000">Additional Relation</text>
</g>
</g>
</svg>
