<?xml version="1.0" encoding="UTF-8" standalone="no"?>
<!DOCTYPE svg PUBLIC "-//W3C//DTD SVG 1.1//EN"
 "http://www.w3.org/Graphics/SVG/1.1/DTD/svg11.dtd">
<!-- Generated by graphviz version 2.40.1 (20161225.0304)
 -->
<!-- Title: public.posts_tags Pages: 1 -->
<svg width="350pt" height="206pt"
 viewBox="0.00 0.00 350.00 206.00" xmlns="http://www.w3.org/2000/svg" xmlns:xlink="http://www.w3.org/1999/xlink">
<g id="graph0" class="graph" transform="scale(1 1) rotate(0) translate(4 202)">
<title>public.posts_tags</title>
<polygon fill="#ffffff" stroke="transparent" points="-4,4 -4,-202 346,-202 346,4 -4,4"/>
<!-- public.posts_tags -->
<g id="node1" class="node">
<title>public.posts_tags</title>
<polygon fill="#efefef" stroke="transparent" points="46,-106 46,-152 296,-152 296,-106 46,-106"/>
<polygon fill="none" stroke="#000000" points="46,-106 46,-152 296,-152 296,-106 46,-106"/>
<text text-anchor="start" x="52.8508" y="-129.8" font-family="Arial Bold" font-size="18.00" fill="#000000">public.posts_tags</text>
<text text-anchor="start" x="191.8954" y="-129.8" font-family="Arial" font-size="14.00" fill="#000000"> </text>
<text text-anchor="start" x="195.786" y="-129.8" font-family="Arial" font-size="14.00" fill="#666666">[BASE TABLE]</text>
<text text-anchor="start" x="137.4301" y="-115.4" font-family="Arial" font-size="14.00" fill="#333333">投稿&#45;タグ</text>
<polygon fill="none" stroke="#000000" points="46,-76 46,-106 296,-106 296,-76 46,-76"/>
<text text-anchor="start" x="53" y="-87.4" font-family="Arial" font-size="14.00" fill="#000000">post_id </text>
<text text-anchor="start" x="102.0182" y="-87.4" font-family="Arial" font-size="14.00" fill="#666666">[bigint]</text>
<text text-anchor="start" x="143.251" y="-87.4" font-family="Arial" font-size="14.00" fill="#000000"> 投稿ID</text>
<polygon fill="none" stroke="#000000" points="46,-46 46,-76 296,-76 296,-46 46,-46"/>
<text text-anchor="start" x="53" y="-57.4" font-family="Arial" font-size="14.00" fill="#000000">tag_id </text>
<text text-anchor="start" x="95.0182" y="-57.4" font-family="Arial" font-size="14.00" fill="#666666">[bigint]</text>
<text text-anchor="start" x="136.251" y="-57.4" font-family="Arial" font-size="14.00" fill="#000000"> タグID</text>
<polygon fill="none" stroke="#000000" stroke-width="3" points="44.5,-44.5 44.5,-153.5 297.5,-153.5 297.5,-44.5 44.5,-44.5"/>
</g>
</g>
</svg>
