<?xml version="1.0" encoding="UTF-8" standalone="no"?>
<!DOCTYPE svg PUBLIC "-//W3C//DTD SVG 1.1//EN"
 "http://www.w3.org/Graphics/SVG/1.1/DTD/svg11.dtd">
<!-- Generated by graphviz version 2.40.1 (20161225.0304)
 -->
<!-- Title: public.users Pages: 1 -->
<svg width="403pt" height="692pt"
 viewBox="0.00 0.00 403.00 692.00" xmlns="http://www.w3.org/2000/svg" xmlns:xlink="http://www.w3.org/1999/xlink">
<g id="graph0" class="graph" transform="scale(1 1) rotate(0) translate(4 688)">
<title>public.users</title>
<polygon fill="#ffffff" stroke="transparent" points="-4,4 -4,-688 399,-688 399,4 -4,4"/>
<!-- public.users -->
<g id="node1" class="node">
<title>public.users</title>
<polygon fill="#efefef" stroke="transparent" points="49,-106 49,-152 296,-152 296,-106 49,-106"/>
<polygon fill="none" stroke="#000000" points="49,-106 49,-152 296,-152 296,-106 49,-106"/>
<text text-anchor="start" x="75.8662" y="-129.8" font-family="Arial Bold" font-size="18.00" fill="#000000">public.users</text>
<text text-anchor="start" x="171.88" y="-129.8" font-family="Arial" font-size="14.00" fill="#000000"> </text>
<text text-anchor="start" x="175.7706" y="-129.8" font-family="Arial" font-size="14.00" fill="#666666">[BASE TABLE]</text>
<text text-anchor="start" x="144.2466" y="-115.4" font-family="Arial" font-size="14.00" fill="#333333">ユーザ</text>
<polygon fill="none" stroke="#000000" points="49,-76 49,-106 296,-106 296,-76 49,-76"/>
<text text-anchor="start" x="56" y="-87.4" font-family="Arial" font-size="14.00" fill="#000000">user_id </text>
<text text-anchor="start" x="105.7882" y="-87.4" font-family="Arial" font-size="14.00" fill="#666666">[bigint]</text>
<text text-anchor="start" x="147.021" y="-87.4" font-family="Arial" font-size="14.00" fill="#000000"> ユーザID</text>
<polygon fill="none" stroke="#000000" points="49,-46 49,-76 296,-76 296,-46 49,-46"/>
<text text-anchor="start" x="55.9521" y="-57.4" font-family="Arial" font-size="14.00" fill="#000000">user_name </text>
<text text-anchor="start" x="129.8595" y="-57.4" font-family="Arial" font-size="14.00" fill="#666666">[varchar(255)]</text>
<text text-anchor="start" x="216.9787" y="-57.4" font-family="Arial" font-size="14.00" fill="#000000"> ユーザ名</text>
<polygon fill="none" stroke="#000000" stroke-width="3" points="47,-44.5 47,-153.5 297,-153.5 297,-44.5 47,-44.5"/>
</g>
<!-- public.posts -->
<g id="node2" class="node">
<title>public.posts</title>
<polygon fill="#efefef" stroke="transparent" points="43,-367 43,-413 303,-413 303,-367 43,-367"/>
<polygon fill="none" stroke="#000000" points="43,-367 43,-413 303,-413 303,-367 43,-367"/>
<text text-anchor="start" x="76.8612" y="-390.8" font-family="Arial Bold" font-size="18.00" fill="#000000">public.posts</text>
<text text-anchor="start" x="171.885" y="-390.8" font-family="Arial" font-size="14.00" fill="#000000"> </text>
<text text-anchor="start" x="175.7756" y="-390.8" font-family="Arial" font-size="14.00" fill="#666666">[BASE TABLE]</text>
<text text-anchor="start" x="157.0512" y="-376.4" font-family="Arial" font-size="14.00" fill="#333333">投稿</text>
<polygon fill="none" stroke="#000000" points="43,-337 43,-367 303,-367 303,-337 43,-337"/>
<text text-anchor="start" x="50" y="-348.4" font-family="Arial" font-size="14.00" fill="#000000">post_id </text>
<text text-anchor="start" x="99.0182" y="-348.4" font-family="Arial" font-size="14.00" fill="#666666">[bigint]</text>
<text text-anchor="start" x="140.251" y="-348.4" font-family="Arial" font-size="14.00" fill="#000000"> 投稿ID</text>
<polygon fill="none" stroke="#000000" points="43,-307 43,-337 303,-337 303,-307 43,-307"/>
<text text-anchor="start" x="50" y="-318.4" font-family="Arial" font-size="14.00" fill="#000000">body </text>
<text text-anchor="start" x="84.2384" y="-318.4" font-family="Arial" font-size="14.00" fill="#666666">[text]</text>
<text text-anchor="start" x="114.5834" y="-318.4" font-family="Arial" font-size="14.00" fill="#000000"> 投稿内容</text>
<polygon fill="none" stroke="#000000" points="43,-277 43,-307 303,-307 303,-277 43,-277"/>
<text text-anchor="start" x="49.8336" y="-288.4" font-family="Arial" font-size="14.00" fill="#000000">author_user_id </text>
<text text-anchor="start" x="147.086" y="-288.4" font-family="Arial" font-size="14.00" fill="#666666">[bigint]</text>
<text text-anchor="start" x="188.3188" y="-288.4" font-family="Arial" font-size="14.00" fill="#000000"> 作成ユーザID</text>
</g>
<!-- public.posts&#45;&gt;public.users -->
<g id="edge1" class="edge">
<title>public.posts:author_user_id&#45;&gt;public.users:user_id</title>
<path fill="none" stroke="#000000" stroke-dasharray="5,2" d="M173.8563,-266.9613C183.2107,-216.5781 266.619,-251.7899 296,-198 318.7966,-156.2646 343.5556,-91 296,-91"/>
<polygon fill="#000000" stroke="#000000" points="173.85,-267.0362 168.5163,-276.6175 173.425,-272.0181 173,-277 173,-277 173,-277 173.425,-272.0181 177.4837,-277.3825 173.85,-267.0362 173.85,-267.0362"/>
<text text-anchor="start" x="156.0745" y="-261" font-family="Arial" font-size="10.00" fill="#000000">Additional Relation</text>
</g>
<!-- public.posts_tags -->
<g id="node3" class="node">
<title>public.posts_tags</title>
<polygon fill="#efefef" stroke="transparent" points="48,-595 48,-641 298,-641 298,-595 48,-595"/>
<polygon fill="none" stroke="#000000" points="48,-595 48,-641 298,-641 298,-595 48,-595"/>
<text text-anchor="start" x="54.8508" y="-618.8" font-family="Arial Bold" font-size="18.00" fill="#000000">public.posts_tags</text>
<text text-anchor="start" x="193.8954" y="-618.8" font-family="Arial" font-size="14.00" fill="#000000"> </text>
<text text-anchor="start" x="197.786" y="-618.8" font-family="Arial" font-size="14.00" fill="#666666">[BASE TABLE]</text>
<text text-anchor="start" x="139.4301" y="-604.4" font-family="Arial" font-size="14.00" fill="#333333">投稿&#45;タグ</text>
<polygon fill="none" stroke="#000000" points="48,-565 48,-595 298,-595 298,-565 48,-565"/>
<text text-anchor="start" x="55" y="-576.4" font-family="Arial" font-size="14.00" fill="#000000">post_id </text>
<text text-anchor="start" x="104.0182" y="-576.4" font-family="Arial" font-size="14.00" fill="#666666">[bigint]</text>
<text text-anchor="start" x="145.251" y="-576.4" font-family="Arial" font-size="14.00" fill="#000000"> 投稿ID</text>
<polygon fill="none" stroke="#000000" points="48,-535 48,-565 298,-565 298,-535 48,-535"/>
<text text-anchor="start" x="55" y="-546.4" font-family="Arial" font-size="14.00" fill="#000000">tag_id </text>
<text text-anchor="start" x="97.0182" y="-546.4" font-family="Arial" font-size="14.00" fill="#666666">[bigint]</text>
<text text-anchor="start" x="138.251" y="-546.4" font-family="Arial" font-size="14.00" fill="#000000"> タグID</text>
</g>
<!-- public.posts_tags&#45;&gt;public.posts -->
<g id="edge2" class="edge">
<title>public.posts_tags:post_id&#45;&gt;public.posts:post_id</title>
<path fill="none" stroke="#000000" stroke-dasharray="5,2" d="M308.055,-579.2191C399.5752,-564.6804 400.8933,-352 303,-352"/>
<polygon fill="#000000" stroke="#000000" points="307.97,-579.2256 297.6515,-575.5135 302.985,-579.6128 298,-580 298,-580 298,-580 302.985,-579.6128 298.3485,-584.4865 307.97,-579.2256 307.97,-579.2256"/>
<text text-anchor="start" x="305.3245" y="-590" font-family="Arial" font-size="10.00" fill="#000000">Additional Relation</text>
</g>
</g>
</svg>
