<?xml version="1.0" encoding="UTF-8" standalone="no"?>
<!DOCTYPE svg PUBLIC "-//W3C//DTD SVG 1.1//EN"
 "http://www.w3.org/Graphics/SVG/1.1/DTD/svg11.dtd">
<!-- Generated by graphviz version 2.40.1 (20161225.0304)
 -->
<!-- Title: public.posts Pages: 1 -->
<svg width="678pt" height="692pt"
 viewBox="0.00 0.00 677.50 692.00" xmlns="http://www.w3.org/2000/svg" xmlns:xlink="http://www.w3.org/1999/xlink">
<g id="graph0" class="graph" transform="scale(1 1) rotate(0) translate(4 688)">
<title>public.posts</title>
<polygon fill="#ffffff" stroke="transparent" points="-4,4 -4,-688 673.5,-688 673.5,4 -4,4"/>
<!-- public.posts -->
<g id="node1" class="node">
<title>public.posts</title>
<polygon fill="#efefef" stroke="transparent" points="46,-364 46,-410 306,-410 306,-364 46,-364"/>
<polygon fill="none" stroke="#000000" points="46,-364 46,-410 306,-410 306,-364 46,-364"/>
<text text-anchor="start" x="79.8612" y="-387.8" font-family="Arial Bold" font-size="18.00" fill="#000000">public.posts</text>
<text text-anchor="start" x="174.885" y="-387.8" font-family="Arial" font-size="14.00" fill="#000000"> </text>
<text text-anchor="start" x="178.7756" y="-387.8" font-family="Arial" font-size="14.00" fill="#666666">[BASE TABLE]</text>
<text text-anchor="start" x="160.0512" y="-373.4" font-family="Arial" font-size="14.00" fill="#333333">投稿</text>
<polygon fill="none" stroke="#000000" points="46,-334 46,-364 306,-364 306,-334 46,-334"/>
<text text-anchor="start" x="53" y="-345.4" font-family="Arial" font-size="14.00" fill="#000000">post_id </text>
<text text-anchor="start" x="102.0182" y="-345.4" font-family="Arial" font-size="14.00" fill="#666666">[bigint]</text>
<text text-anchor="start" x="143.251" y="-345.4" font-family="Arial" font-size="14.00" fill="#000000"> 投稿ID</text>
<polygon fill="none" stroke="#000000" points="46,-304 46,-334 306,-334 306,-304 46,-304"/>
<text text-anchor="start" x="53" y="-315.4" font-family="Arial" font-size="14.00" fill="#000000">body </text>
<text text-anchor="start" x="87.2384" y="-315.4" font-family="Arial" font-size="14.00" fill="#666666">[text]</text>
<text text-anchor="start" x="117.5834" y="-315.4" font-family="Arial" font-size="14.00" fill="#000000"> 投稿内容</text>
<polygon fill="none" stroke="#000000" points="46,-274 46,-304 306,-304 306,-274 46,-274"/>
<text text-anchor="start" x="52.8336" y="-285.4" font-family="Arial" font-size="14.00" fill="#000000">author_user_id </text>
<text text-anchor="start" x="150.086" y="-285.4" font-family="Arial" font-size="14.00" fill="#666666">[bigint]</text>
<text text-anchor="start" x="191.3188" y="-285.4" font-family="Arial" font-size="14.00" fill="#000000"> 作成ユーザID</text>
<polygon fill="none" stroke="#000000" stroke-width="3" points="44.5,-272.5 44.5,-411.5 307.5,-411.5 307.5,-272.5 44.5,-272.5"/>
</g>
<!-- public.users -->
<g id="node4" class="node">
<title>public.users</title>
<polygon fill="#efefef" stroke="transparent" points="52,-103 52,-149 299,-149 299,-103 52,-103"/>
<polygon fill="none" stroke="#000000" points="52,-103 52,-149 299,-149 299,-103 52,-103"/>
<text text-anchor="start" x="78.8662" y="-126.8" font-family="Arial Bold" font-size="18.00" fill="#000000">public.users</text>
<text text-anchor="start" x="174.88" y="-126.8" font-family="Arial" font-size="14.00" fill="#000000"> </text>
<text text-anchor="start" x="178.7706" y="-126.8" font-family="Arial" font-size="14.00" fill="#666666">[BASE TABLE]</text>
<text text-anchor="start" x="147.2466" y="-112.4" font-family="Arial" font-size="14.00" fill="#333333">ユーザ</text>
<polygon fill="none" stroke="#000000" points="52,-73 52,-103 299,-103 299,-73 52,-73"/>
<text text-anchor="start" x="59" y="-84.4" font-family="Arial" font-size="14.00" fill="#000000">user_id </text>
<text text-anchor="start" x="108.7882" y="-84.4" font-family="Arial" font-size="14.00" fill="#666666">[bigint]</text>
<text text-anchor="start" x="150.021" y="-84.4" font-family="Arial" font-size="14.00" fill="#000000"> ユーザID</text>
<polygon fill="none" stroke="#000000" points="52,-43 52,-73 299,-73 299,-43 52,-43"/>
<text text-anchor="start" x="58.9521" y="-54.4" font-family="Arial" font-size="14.00" fill="#000000">user_name </text>
<text text-anchor="start" x="132.8595" y="-54.4" font-family="Arial" font-size="14.00" fill="#666666">[varchar(255)]</text>
<text text-anchor="start" x="219.9787" y="-54.4" font-family="Arial" font-size="14.00" fill="#000000"> ユーザ名</text>
</g>
<!-- public.posts&#45;&gt;public.users -->
<g id="edge3" class="edge">
<title>public.posts:author_user_id&#45;&gt;public.users:user_id</title>
<path fill="none" stroke="#000000" stroke-dasharray="5,2" d="M176.8576,-263.8313C186.226,-212.6951 269.7543,-246.646 299,-192 320.8103,-151.247 345.2222,-88 299,-88"/>
<polygon fill="#000000" stroke="#000000" points="176.8405,-264.0354 171.5159,-273.6218 176.4203,-269.0177 176,-274 176,-274 176,-274 176.4203,-269.0177 180.4841,-274.3782 176.8405,-264.0354 176.8405,-264.0354"/>
<text text-anchor="start" x="86.3245" y="-284" font-family="Arial" font-size="10.00" fill="#000000">Additional Relation</text>
</g>
<!-- public.posts_tags -->
<g id="node2" class="node">
<title>public.posts_tags</title>
<polygon fill="#efefef" stroke="transparent" points="223,-595 223,-641 473,-641 473,-595 223,-595"/>
<polygon fill="none" stroke="#000000" points="223,-595 223,-641 473,-641 473,-595 223,-595"/>
<text text-anchor="start" x="229.8508" y="-618.8" font-family="Arial Bold" font-size="18.00" fill="#000000">public.posts_tags</text>
<text text-anchor="start" x="368.8954" y="-618.8" font-family="Arial" font-size="14.00" fill="#000000"> </text>
<text text-anchor="start" x="372.786" y="-618.8" font-family="Arial" font-size="14.00" fill="#666666">[BASE TABLE]</text>
<text text-anchor="start" x="314.4301" y="-604.4" font-family="Arial" font-size="14.00" fill="#333333">投稿&#45;タグ</text>
<polygon fill="none" stroke="#000000" points="223,-565 223,-595 473,-595 473,-565 223,-565"/>
<text text-anchor="start" x="230" y="-576.4" font-family="Arial" font-size="14.00" fill="#000000">post_id </text>
<text text-anchor="start" x="279.0182" y="-576.4" font-family="Arial" font-size="14.00" fill="#666666">[bigint]</text>
<text text-anchor="start" x="320.251" y="-576.4" font-family="Arial" font-size="14.00" fill="#000000"> 投稿ID</text>
<polygon fill="none" stroke="#000000" points="223,-535 223,-565 473,-565 473,-535 223,-535"/>
<text text-anchor="start" x="230" y="-546.4" font-family="Arial" font-size="14.00" fill="#000000">tag_id </text>
<text text-anchor="start" x="272.0182" y="-546.4" font-family="Arial" font-size="14.00" fill="#666666">[bigint]</text>
<text text-anchor="start" x="313.251" y="-546.4" font-family="Arial" font-size="14.00" fill="#000000"> タグID</text>
</g>
<!-- public.posts_tags&#45;&gt;public.posts -->
<g id="edge1" class="edge">
<title>public.posts_tags:post_id&#45;&gt;public.posts:post_id</title>
<path fill="none" stroke="#000000" stroke-dasharray="5,2" d="M212.7844,-578.3703C187.5137,-569 203.7203,-521.3774 223,-492 245.0617,-458.3835 283.9383,-489.6165 306,-456 332.0924,-416.2418 353.5556,-349 306,-349"/>
<polygon fill="#000000" stroke="#000000" points="213.1249,-578.4246 222.291,-584.4438 218.0624,-579.2123 223,-580 223,-580 223,-580 218.0624,-579.2123 223.709,-575.5562 213.1249,-578.4246 213.1249,-578.4246"/>
<text text-anchor="start" x="133.3245" y="-590" font-family="Arial" font-size="10.00" fill="#000000">Additional Relation</text>
</g>
<!-- public.tags -->
<g id="node3" class="node">
<title>public.tags</title>
<polygon fill="#efefef" stroke="transparent" points="414,-349 414,-395 627,-395 627,-349 414,-349"/>
<polygon fill="none" stroke="#000000" points="414,-349 414,-395 627,-395 627,-349 414,-349"/>
<text text-anchor="start" x="428.8612" y="-372.8" font-family="Arial Bold" font-size="18.00" fill="#000000">public.tags</text>
<text text-anchor="start" x="514.885" y="-372.8" font-family="Arial" font-size="14.00" fill="#000000"> </text>
<text text-anchor="start" x="518.7756" y="-372.8" font-family="Arial" font-size="14.00" fill="#666666">[BASE TABLE]</text>
<text text-anchor="start" x="505.2092" y="-358.4" font-family="Arial" font-size="14.00" fill="#333333">タグ</text>
<polygon fill="none" stroke="#000000" points="414,-319 414,-349 627,-349 627,-319 414,-319"/>
<text text-anchor="start" x="421" y="-330.4" font-family="Arial" font-size="14.00" fill="#000000">tag_id </text>
<text text-anchor="start" x="463.0182" y="-330.4" font-family="Arial" font-size="14.00" fill="#666666">[bigint]</text>
<text text-anchor="start" x="504.251" y="-330.4" font-family="Arial" font-size="14.00" fill="#000000"> タグID</text>
<polygon fill="none" stroke="#000000" points="414,-289 414,-319 627,-319 627,-289 414,-289"/>
<text text-anchor="start" x="420.7997" y="-300.4" font-family="Arial" font-size="14.00" fill="#000000">tag_name </text>
<text text-anchor="start" x="486.9371" y="-300.4" font-family="Arial" font-size="14.00" fill="#666666">[varchar(255)]</text>
<text text-anchor="start" x="574.0563" y="-300.4" font-family="Arial" font-size="14.00" fill="#000000"> タグ名</text>
</g>
<!-- public.posts_tags&#45;&gt;public.tags -->
<g id="edge2" class="edge">
<title>public.posts_tags:tag_id&#45;&gt;public.tags:tag_id</title>
<path fill="none" stroke="#000000" stroke-dasharray="5,2" d="M482.8778,-547.1803C493.6355,-538.4917 481.6032,-511.5368 473,-492 458.6739,-459.4674 428.3261,-470.5326 414,-438 395.3718,-395.6977 367.7778,-334 414,-334"/>
<polygon fill="#000000" stroke="#000000" points="482.6159,-547.2549 471.7647,-545.6729 477.8079,-548.6275 473,-550 473,-550 473,-550 477.8079,-548.6275 474.2353,-554.3271 482.6159,-547.2549 482.6159,-547.2549"/>
<text text-anchor="start" x="480.3245" y="-560" font-family="Arial" font-size="10.00" fill="#000000">Additional Relation</text>
</g>
</g>
</svg>
