<?xml version="1.0" encoding="UTF-8" standalone="no"?>
<!DOCTYPE svg PUBLIC "-//W3C//DTD SVG 1.1//EN"
 "http://www.w3.org/Graphics/SVG/1.1/DTD/svg11.dtd">
<!-- Generated by graphviz version 2.40.1 (20161225.0304)
 -->
<!-- Title: public.posts Pages: 1 -->
<svg width="360pt" height="236pt"
 viewBox="0.00 0.00 360.00 236.00" xmlns="http://www.w3.org/2000/svg" xmlns:xlink="http://www.w3.org/1999/xlink">
<g id="graph0" class="graph" transform="scale(1 1) rotate(0) translate(4 232)">
<title>public.posts</title>
<polygon fill="#ffffff" stroke="transparent" points="-4,4 -4,-232 356,-232 356,4 -4,4"/>
<!-- public.posts -->
<g id="node1" class="node">
<title>public.posts</title>
<polygon fill="#efefef" stroke="transparent" points="46,-136 46,-182 306,-182 306,-136 46,-136"/>
<polygon fill="none" stroke="#000000" points="46,-136 46,-182 306,-182 306,-136 46,-136"/>
<text text-anchor="start" x="79.8612" y="-159.8" font-family="Arial Bold" font-size="18.00" fill="#000000">public.posts</text>
<text text-anchor="start" x="174.885" y="-159.8" font-family="Arial" font-size="14.00" fill="#000000"> </text>
<text text-anchor="start" x="178.7756" y="-159.8" font-family="Arial" font-size="14.00" fill="#666666">[BASE TABLE]</text>
<text text-anchor="start" x="160.0512" y="-145.4" font-family="Arial" font-size="14.00" fill="#333333">投稿</text>
<polygon fill="none" stroke="#000000" points="46,-106 46,-136 306,-136 306,-106 46,-106"/>
<text text-anchor="start" x="53" y="-117.4" font-family="Arial" font-size="14.00" fill="#000000">post_id </text>
<text text-anchor="start" x="102.0182" y="-117.4" font-family="Arial" font-size="14.00" fill="#666666">[bigint]</text>
<text text-anchor="start" x="143.251" y="-117.4" font-family="Arial" font-size="14.00" fill="#000000"> 投稿ID</text>
<polygon fill="none" stroke="#000000" points="46,-76 46,-106 306,-106 306,-76 46,-76"/>
<text text-anchor="start" x="53" y="-87.4" font-family="Arial" font-size="14.00" fill="#000000">body </text>
<text text-anchor="start" x="87.2384" y="-87.4" font-family="Arial" font-size="14.00" fill="#666666">[text]</text>
<text text-anchor="start" x="117.5834" y="-87.4" font-family="Arial" font-size="14.00" fill="#000000"> 投稿内容</text>
<polygon fill="none" stroke="#000000" points="46,-46 46,-76 306,-76 306,-46 46,-46"/>
<text text-anchor="start" x="52.8336" y="-57.4" font-family="Arial" font-size="14.00" fill="#000000">author_user_id </text>
<text text-anchor="start" x="150.086" y="-57.4" font-family="Arial" font-size="14.00" fill="#666666">[bigint]</text>
<text text-anchor="start" x="191.3188" y="-57.4" font-family="Arial" font-size="14.00" fill="#000000"> 作成ユーザID</text>
<polygon fill="none" stroke="#000000" stroke-width="3" points="44.5,-44.5 44.5,-183.5 307.5,-183.5 307.5,-44.5 44.5,-44.5"/>
</g>
</g>
</svg>
