<?xml version="1.0" encoding="UTF-8" standalone="no"?>
<!DOCTYPE svg PUBLIC "-//W3C//DTD SVG 1.1//EN"
 "http://www.w3.org/Graphics/SVG/1.1/DTD/svg11.dtd">
<!-- Generated by graphviz version 2.40.1 (20161225.0304)
 -->
<!-- Title: public.tags Pages: 1 -->
<svg width="313pt" height="206pt"
 viewBox="0.00 0.00 313.00 206.00" xmlns="http://www.w3.org/2000/svg" xmlns:xlink="http://www.w3.org/1999/xlink">
<g id="graph0" class="graph" transform="scale(1 1) rotate(0) translate(4 202)">
<title>public.tags</title>
<polygon fill="#ffffff" stroke="transparent" points="-4,4 -4,-202 309,-202 309,4 -4,4"/>
<!-- public.tags -->
<g id="node1" class="node">
<title>public.tags</title>
<polygon fill="#efefef" stroke="transparent" points="46.5,-106 46.5,-152 259.5,-152 259.5,-106 46.5,-106"/>
<polygon fill="none" stroke="#000000" points="46.5,-106 46.5,-152 259.5,-152 259.5,-106 46.5,-106"/>
<text text-anchor="start" x="61.3612" y="-129.8" font-family="Arial Bold" font-size="18.00" fill="#000000">public.tags</text>
<text text-anchor="start" x="147.385" y="-129.8" font-family="Arial" font-size="14.00" fill="#000000"> </text>
<text text-anchor="start" x="151.2756" y="-129.8" font-family="Arial" font-size="14.00" fill="#666666">[BASE TABLE]</text>
<text text-anchor="start" x="137.7092" y="-115.4" font-family="Arial" font-size="14.00" fill="#333333">タグ</text>
<polygon fill="none" stroke="#000000" points="46.5,-76 46.5,-106 259.5,-106 259.5,-76 46.5,-76"/>
<text text-anchor="start" x="53.5" y="-87.4" font-family="Arial" font-size="14.00" fill="#000000">tag_id </text>
<text text-anchor="start" x="95.5182" y="-87.4" font-family="Arial" font-size="14.00" fill="#666666">[bigint]</text>
<text text-anchor="start" x="136.751" y="-87.4" font-family="Arial" font-size="14.00" fill="#000000"> タグID</text>
<polygon fill="none" stroke="#000000" points="46.5,-46 46.5,-76 259.5,-76 259.5,-46 46.5,-46"/>
<text text-anchor="start" x="53.2997" y="-57.4" font-family="Arial" font-size="14.00" fill="#000000">tag_name </text>
<text text-anchor="start" x="119.4371" y="-57.4" font-family="Arial" font-size="14.00" fill="#666666">[varchar(255)]</text>
<text text-anchor="start" x="206.5563" y="-57.4" font-family="Arial" font-size="14.00" fill="#000000"> タグ名</text>
<polygon fill="none" stroke="#000000" stroke-width="3" points="44.5,-44.5 44.5,-153.5 260.5,-153.5 260.5,-44.5 44.5,-44.5"/>
</g>
</g>
</svg>
