<?xml version="1.0" encoding="UTF-8" standalone="no"?>
<!DOCTYPE svg PUBLIC "-//W3C//DTD SVG 1.1//EN"
 "http://www.w3.org/Graphics/SVG/1.1/DTD/svg11.dtd">
<!-- Generated by graphviz version 2.40.1 (20161225.0304)
 -->
<!-- Title: public.tags Pages: 1 -->
<svg width="678pt" height="458pt"
 viewBox="0.00 0.00 677.50 458.00" xmlns="http://www.w3.org/2000/svg" xmlns:xlink="http://www.w3.org/1999/xlink">
<g id="graph0" class="graph" transform="scale(1 1) rotate(0) translate(4 454)">
<title>public.tags</title>
<polygon fill="#ffffff" stroke="transparent" points="-4,4 -4,-454 673.5,-454 673.5,4 -4,4"/>
<!-- public.tags -->
<g id="node1" class="node">
<title>public.tags</title>
<polygon fill="#efefef" stroke="transparent" points="46.5,-118 46.5,-164 259.5,-164 259.5,-118 46.5,-118"/>
<polygon fill="none" stroke="#000000" points="46.5,-118 46.5,-164 259.5,-164 259.5,-118 46.5,-118"/>
<text text-anchor="start" x="61.3612" y="-141.8" font-family="Arial Bold" font-size="18.00" fill="#000000">public.tags</text>
<text text-anchor="start" x="147.385" y="-141.8" font-family="Arial" font-size="14.00" fill="#000000"> </text>
<text text-anchor="start" x="151.2756" y="-141.8" font-family="Arial" font-size="14.00" fill="#666666">[BASE TABLE]</text>
<text text-anchor="start" x="137.7092" y="-127.4" font-family="Arial" font-size="14.00" fill="#333333">タグ</text>
<polygon fill="none" stroke="#000000" points="46.5,-88 46.5,-118 259.5,-118 259.5,-88 46.5,-88"/>
<text text-anchor="start" x="53.5" y="-99.4" font-family="Arial" font-size="14.00" fill="#000000">tag_id </text>
<text text-anchor="start" x="95.5182" y="-99.4" font-family="Arial" font-size="14.00" fill="#666666">[bigint]</text>
<text text-anchor="start" x="136.751" y="-99.4" font-family="Arial" font-size="14.00" fill="#000000"> タグID</text>
<polygon fill="none" stroke="#000000" points="46.5,-58 46.5,-88 259.5,-88 259.5,-58 46.5,-58"/>
<text text-anchor="start" x="53.2997" y="-69.4" font-family="Arial" font-size="14.00" fill="#000000">tag_name </text>
<text text-anchor="start" x="119.4371" y="-69.4" font-family="Arial" font-size="14.00" fill="#666666">[varchar(255)]</text>
<text text-anchor="start" x="206.5563" y="-69.4" font-family="Arial" font-size="14.00" fill="#000000"> タグ名</text>
<polygon fill="none" stroke="#000000" stroke-width="3" points="44.5,-56.5 44.5,-165.5 260.5,-165.5 260.5,-56.5 44.5,-56.5"/>
</g>
<!-- public.posts_tags -->
<g id="node2" class="node">
<title>public.posts_tags</title>
<polygon fill="#efefef" stroke="transparent" points="199.5,-361 199.5,-407 449.5,-407 449.5,-361 199.5,-361"/>
<polygon fill="none" stroke="#000000" points="199.5,-361 199.5,-407 449.5,-407 449.5,-361 199.5,-361"/>
<text text-anchor="start" x="206.3508" y="-384.8" font-family="Arial Bold" font-size="18.00" fill="#000000">public.posts_tags</text>
<text text-anchor="start" x="345.3954" y="-384.8" font-family="Arial" font-size="14.00" fill="#000000"> </text>
<text text-anchor="start" x="349.286" y="-384.8" font-family="Arial" font-size="14.00" fill="#666666">[BASE TABLE]</text>
<text text-anchor="start" x="290.9301" y="-370.4" font-family="Arial" font-size="14.00" fill="#333333">投稿&#45;タグ</text>
<polygon fill="none" stroke="#000000" points="199.5,-331 199.5,-361 449.5,-361 449.5,-331 199.5,-331"/>
<text text-anchor="start" x="206.5" y="-342.4" font-family="Arial" font-size="14.00" fill="#000000">post_id </text>
<text text-anchor="start" x="255.5182" y="-342.4" font-family="Arial" font-size="14.00" fill="#666666">[bigint]</text>
<text text-anchor="start" x="296.751" y="-342.4" font-family="Arial" font-size="14.00" fill="#000000"> 投稿ID</text>
<polygon fill="none" stroke="#000000" points="199.5,-301 199.5,-331 449.5,-331 449.5,-301 199.5,-301"/>
<text text-anchor="start" x="206.5" y="-312.4" font-family="Arial" font-size="14.00" fill="#000000">tag_id </text>
<text text-anchor="start" x="248.5182" y="-312.4" font-family="Arial" font-size="14.00" fill="#666666">[bigint]</text>
<text text-anchor="start" x="289.751" y="-312.4" font-family="Arial" font-size="14.00" fill="#000000"> タグID</text>
</g>
<!-- public.posts_tags&#45;&gt;public.tags -->
<g id="edge1" class="edge">
<title>public.posts_tags:tag_id&#45;&gt;public.tags:tag_id</title>
<path fill="none" stroke="#000000" stroke-dasharray="5,2" d="M189.5652,-313.154C178.643,-304.3897 190.2526,-277.2403 199.5,-258 214.2934,-227.2205 244.7066,-240.7795 259.5,-210 280.1005,-167.138 307.0556,-103 259.5,-103"/>
<polygon fill="#000000" stroke="#000000" points="189.8867,-313.246 198.2607,-320.326 194.6933,-314.623 199.5,-316 199.5,-316 199.5,-316 194.6933,-314.623 200.7393,-311.674 189.8867,-313.246 189.8867,-313.246"/>
<text text-anchor="start" x="109.8245" y="-326" font-family="Arial" font-size="10.00" fill="#000000">Additional Relation</text>
</g>
<!-- public.posts -->
<g id="node3" class="node">
<title>public.posts</title>
<polygon fill="#efefef" stroke="transparent" points="366.5,-133 366.5,-179 626.5,-179 626.5,-133 366.5,-133"/>
<polygon fill="none" stroke="#000000" points="366.5,-133 366.5,-179 626.5,-179 626.5,-133 366.5,-133"/>
<text text-anchor="start" x="400.3612" y="-156.8" font-family="Arial Bold" font-size="18.00" fill="#000000">public.posts</text>
<text text-anchor="start" x="495.385" y="-156.8" font-family="Arial" font-size="14.00" fill="#000000"> </text>
<text text-anchor="start" x="499.2756" y="-156.8" font-family="Arial" font-size="14.00" fill="#666666">[BASE TABLE]</text>
<text text-anchor="start" x="480.5512" y="-142.4" font-family="Arial" font-size="14.00" fill="#333333">投稿</text>
<polygon fill="none" stroke="#000000" points="366.5,-103 366.5,-133 626.5,-133 626.5,-103 366.5,-103"/>
<text text-anchor="start" x="373.5" y="-114.4" font-family="Arial" font-size="14.00" fill="#000000">post_id </text>
<text text-anchor="start" x="422.5182" y="-114.4" font-family="Arial" font-size="14.00" fill="#666666">[bigint]</text>
<text text-anchor="start" x="463.751" y="-114.4" font-family="Arial" font-size="14.00" fill="#000000"> 投稿ID</text>
<polygon fill="none" stroke="#000000" points="366.5,-73 366.5,-103 626.5,-103 626.5,-73 366.5,-73"/>
<text text-anchor="start" x="373.5" y="-84.4" font-family="Arial" font-size="14.00" fill="#000000">body </text>
<text text-anchor="start" x="407.7384" y="-84.4" font-family="Arial" font-size="14.00" fill="#666666">[text]</text>
<text text-anchor="start" x="438.0834" y="-84.4" font-family="Arial" font-size="14.00" fill="#000000"> 投稿内容</text>
<polygon fill="none" stroke="#000000" points="366.5,-43 366.5,-73 626.5,-73 626.5,-43 366.5,-43"/>
<text text-anchor="start" x="373.3336" y="-54.4" font-family="Arial" font-size="14.00" fill="#000000">author_user_id </text>
<text text-anchor="start" x="470.586" y="-54.4" font-family="Arial" font-size="14.00" fill="#666666">[bigint]</text>
<text text-anchor="start" x="511.8188" y="-54.4" font-family="Arial" font-size="14.00" fill="#000000"> 作成ユーザID</text>
</g>
<!-- public.posts_tags&#45;&gt;public.posts -->
<g id="edge2" class="edge">
<title>public.posts_tags:post_id&#45;&gt;public.posts:post_id</title>
<path fill="none" stroke="#000000" stroke-dasharray="5,2" d="M459.7156,-344.3703C484.9863,-335 468.7797,-287.3774 449.5,-258 427.4383,-224.3835 388.5617,-255.6165 366.5,-222 341.1392,-183.3565 320.2778,-118 366.5,-118"/>
<polygon fill="#000000" stroke="#000000" points="459.3751,-344.4246 448.791,-341.5562 454.4376,-345.2123 449.5,-346 449.5,-346 449.5,-346 454.4376,-345.2123 450.209,-350.4438 459.3751,-344.4246 459.3751,-344.4246"/>
<text text-anchor="start" x="456.8245" y="-356" font-family="Arial" font-size="10.00" fill="#000000">Additional Relation</text>
</g>
</g>
</svg>
