<?xml version="1.0" encoding="UTF-8" standalone="no"?>
<!DOCTYPE svg PUBLIC "-//W3C//DTD SVG 1.1//EN"
 "http://www.w3.org/Graphics/SVG/1.1/DTD/svg11.dtd">
<!-- Generated by graphviz version 2.40.1 (20161225.0304)
 -->
<!-- Title: public.users Pages: 1 -->
<svg width="347pt" height="206pt"
 viewBox="0.00 0.00 347.00 206.00" xmlns="http://www.w3.org/2000/svg" xmlns:xlink="http://www.w3.org/1999/xlink">
<g id="graph0" class="graph" transform="scale(1 1) rotate(0) translate(4 202)">
<title>public.users</title>
<polygon fill="#ffffff" stroke="transparent" points="-4,4 -4,-202 343,-202 343,4 -4,4"/>
<!-- public.users -->
<g id="node1" class="node">
<title>public.users</title>
<polygon fill="#efefef" stroke="transparent" points="46.5,-106 46.5,-152 293.5,-152 293.5,-106 46.5,-106"/>
<polygon fill="none" stroke="#000000" points="46.5,-106 46.5,-152 293.5,-152 293.5,-106 46.5,-106"/>
<text text-anchor="start" x="73.3662" y="-129.8" font-family="Arial Bold" font-size="18.00" fill="#000000">public.users</text>
<text text-anchor="start" x="169.38" y="-129.8" font-family="Arial" font-size="14.00" fill="#000000"> </text>
<text text-anchor="start" x="173.2706" y="-129.8" font-family="Arial" font-size="14.00" fill="#666666">[BASE TABLE]</text>
<text text-anchor="start" x="141.7466" y="-115.4" font-family="Arial" font-size="14.00" fill="#333333">ユーザ</text>
<polygon fill="none" stroke="#000000" points="46.5,-76 46.5,-106 293.5,-106 293.5,-76 46.5,-76"/>
<text text-anchor="start" x="53.5" y="-87.4" font-family="Arial" font-size="14.00" fill="#000000">user_id </text>
<text text-anchor="start" x="103.2882" y="-87.4" font-family="Arial" font-size="14.00" fill="#666666">[bigint]</text>
<text text-anchor="start" x="144.521" y="-87.4" font-family="Arial" font-size="14.00" fill="#000000"> ユーザID</text>
<polygon fill="none" stroke="#000000" points="46.5,-46 46.5,-76 293.5,-76 293.5,-46 46.5,-46"/>
<text text-anchor="start" x="53.4521" y="-57.4" font-family="Arial" font-size="14.00" fill="#000000">user_name </text>
<text text-anchor="start" x="127.3595" y="-57.4" font-family="Arial" font-size="14.00" fill="#666666">[varchar(255)]</text>
<text text-anchor="start" x="214.4787" y="-57.4" font-family="Arial" font-size="14.00" fill="#000000"> ユーザ名</text>
<polygon fill="none" stroke="#000000" stroke-width="3" points="44.5,-44.5 44.5,-153.5 294.5,-153.5 294.5,-44.5 44.5,-44.5"/>
</g>
</g>
</svg>
