<?xml version="1.0" encoding="UTF-8" standalone="no"?>
<!DOCTYPE svg PUBLIC "-//W3C//DTD SVG 1.1//EN"
 "http://www.w3.org/Graphics/SVG/1.1/DTD/svg11.dtd">
<!-- Generated by graphviz version 2.40.1 (20161225.0304)
 -->
<!-- Title: example Pages: 1 -->
<svg width="1377pt" height="230pt"
 viewBox="0.00 0.00 1376.50 230.00" xmlns="http://www.w3.org/2000/svg" xmlns:xlink="http://www.w3.org/1999/xlink">
<g id="graph0" class="graph" transform="scale(1 1) rotate(0) translate(4 226)">
<title>example</title>
<polygon fill="#ffffff" stroke="transparent" points="-4,4 -4,-226 1372.5,-226 1372.5,4 -4,4"/>
<!-- public.posts -->
<g id="node1" class="node">
<title>public.posts</title>
<polygon fill="#efefef" stroke="transparent" points="43,-133 43,-179 303,-179 303,-133 43,-133"/>
<polygon fill="none" stroke="#000000" points="43,-133 43,-179 303,-179 303,-133 43,-133"/>
<text text-anchor="start" x="76.8612" y="-156.8" font-family="Arial Bold" font-size="18.00" fill="#000000">public.posts</text>
<text text-anchor="start" x="171.885" y="-156.8" font-family="Arial" font-size="14.00" fill="#000000"> </text>
<text text-anchor="start" x="175.7756" y="-156.8" font-family="Arial" font-size="14.00" fill="#666666">[BASE TABLE]</text>
<text text-anchor="start" x="157.0512" y="-142.4" font-family="Arial" font-size="14.00" fill="#333333">投稿</text>
<polygon fill="none" stroke="#000000" points="43,-103 43,-133 303,-133 303,-103 43,-103"/>
<text text-anchor="start" x="50" y="-114.4" font-family="Arial" font-size="14.00" fill="#000000">post_id </text>
<text text-anchor="start" x="99.0182" y="-114.4" font-family="Arial" font-size="14.00" fill="#666666">[bigint]</text>
<text text-anchor="start" x="140.251" y="-114.4" font-family="Arial" font-size="14.00" fill="#000000"> 投稿ID</text>
<polygon fill="none" stroke="#000000" points="43,-73 43,-103 303,-103 303,-73 43,-73"/>
<text text-anchor="start" x="50" y="-84.4" font-family="Arial" font-size="14.00" fill="#000000">body </text>
<text text-anchor="start" x="84.2384" y="-84.4" font-family="Arial" font-size="14.00" fill="#666666">[text]</text>
<text text-anchor="start" x="114.5834" y="-84.4" font-family="Arial" font-size="14.00" fill="#000000"> 投稿内容</text>
<polygon fill="none" stroke="#000000" points="43,-43 43,-73 303,-73 303,-43 43,-43"/>
<text text-anchor="start" x="49.8336" y="-54.4" font-family="Arial" font-size="14.00" fill="#000000">author_user_id </text>
<text text-anchor="start" x="147.086" y="-54.4" font-family="Arial" font-size="14.00" fill="#666666">[bigint]</text>
<text text-anchor="start" x="188.3188" y="-54.4" font-family="Arial" font-size="14.00" fill="#000000"> 作成ユーザID</text>
</g>
<!-- public.posts_tags -->
<g id="node2" class="node">
<title>public.posts_tags</title>
<polygon fill="#efefef" stroke="transparent" points="407,-118 407,-164 657,-164 657,-118 407,-118"/>
<polygon fill="none" stroke="#000000" points="407,-118 407,-164 657,-164 657,-118 407,-118"/>
<text text-anchor="start" x="413.8508" y="-141.8" font-family="Arial Bold" font-size="18.00" fill="#000000">public.posts_tags</text>
<text text-anchor="start" x="552.8954" y="-141.8" font-family="Arial" font-size="14.00" fill="#000000"> </text>
<text text-anchor="start" x="556.786" y="-141.8" font-family="Arial" font-size="14.00" fill="#666666">[BASE TABLE]</text>
<text text-anchor="start" x="498.4301" y="-127.4" font-family="Arial" font-size="14.00" fill="#333333">投稿&#45;タグ</text>
<polygon fill="none" stroke="#000000" points="407,-88 407,-118 657,-118 657,-88 407,-88"/>
<text text-anchor="start" x="414" y="-99.4" font-family="Arial" font-size="14.00" fill="#000000">post_id </text>
<text text-anchor="start" x="463.0182" y="-99.4" font-family="Arial" font-size="14.00" fill="#666666">[bigint]</text>
<text text-anchor="start" x="504.251" y="-99.4" font-family="Arial" font-size="14.00" fill="#000000"> 投稿ID</text>
<polygon fill="none" stroke="#000000" points="407,-58 407,-88 657,-88 657,-58 407,-58"/>
<text text-anchor="start" x="414" y="-69.4" font-family="Arial" font-size="14.00" fill="#000000">tag_id </text>
<text text-anchor="start" x="456.0182" y="-69.4" font-family="Arial" font-size="14.00" fill="#666666">[bigint]</text>
<text text-anchor="start" x="497.251" y="-69.4" font-family="Arial" font-size="14.00" fill="#000000"> タグID</text>
</g>
<!-- public.tags -->
<g id="node3" class="node">
<title>public.tags</title>
<polygon fill="#efefef" stroke="transparent" points="762,-118 762,-164 975,-164 975,-118 762,-118"/>
<polygon fill="none" stroke="#000000" points="762,-118 762,-164 975,-164 975,-118 762,-118"/>
<text text-anchor="start" x="776.8612" y="-141.8" font-family="Arial Bold" font-size="18.00" fill="#000000">public.tags</text>
<text text-anchor="start" x="862.885" y="-141.8" font-family="Arial" font-size="14.00" fill="#000000"> </text>
<text text-anchor="start" x="866.7756" y="-141.8" font-family="Arial" font-size="14.00" fill="#666666">[BASE TABLE]</text>
<text text-anchor="start" x="853.2092" y="-127.4" font-family="Arial" font-size="14.00" fill="#333333">タグ</text>
<polygon fill="none" stroke="#000000" points="762,-88 762,-118 975,-118 975,-88 762,-88"/>
<text text-anchor="start" x="769" y="-99.4" font-family="Arial" font-size="14.00" fill="#000000">tag_id </text>
<text text-anchor="start" x="811.0182" y="-99.4" font-family="Arial" font-size="14.00" fill="#666666">[bigint]</text>
<text text-anchor="start" x="852.251" y="-99.4" font-family="Arial" font-size="14.00" fill="#000000"> タグID</text>
<polygon fill="none" stroke="#000000" points="762,-58 762,-88 975,-88 975,-58 762,-58"/>
<text text-anchor="start" x="768.7997" y="-69.4" font-family="Arial" font-size="14.00" fill="#000000">tag_name </text>
<text text-anchor="start" x="834.9371" y="-69.4" font-family="Arial" font-size="14.00" fill="#666666">[varchar(255)]</text>
<text text-anchor="start" x="922.0563" y="-69.4" font-family="Arial" font-size="14.00" fill="#000000"> タグ名</text>
</g>
<!-- public.users -->
<g id="node4" class="node">
<title>public.users</title>
<polygon fill="#efefef" stroke="transparent" points="1079,-118 1079,-164 1326,-164 1326,-118 1079,-118"/>
<polygon fill="none" stroke="#000000" points="1079,-118 1079,-164 1326,-164 1326,-118 1079,-118"/>
<text text-anchor="start" x="1105.8662" y="-141.8" font-family="Arial Bold" font-size="18.00" fill="#000000">public.users</text>
<text text-anchor="start" x="1201.88" y="-141.8" font-family="Arial" font-size="14.00" fill="#000000"> </text>
<text text-anchor="start" x="1205.7706" y="-141.8" font-family="Arial" font-size="14.00" fill="#666666">[BASE TABLE]</text>
<text text-anchor="start" x="1174.2466" y="-127.4" font-family="Arial" font-size="14.00" fill="#333333">ユーザ</text>
<polygon fill="none" stroke="#000000" points="1079,-88 1079,-118 1326,-118 1326,-88 1079,-88"/>
<text text-anchor="start" x="1086" y="-99.4" font-family="Arial" font-size="14.00" fill="#000000">user_id </text>
<text text-anchor="start" x="1135.7882" y="-99.4" font-family="Arial" font-size="14.00" fill="#666666">[bigint]</text>
<text text-anchor="start" x="1177.021" y="-99.4" font-family="Arial" font-size="14.00" fill="#000000"> ユーザID</text>
<polygon fill="none" stroke="#000000" points="1079,-58 1079,-88 1326,-88 1326,-58 1079,-58"/>
<text text-anchor="start" x="1085.9521" y="-69.4" font-family="Arial" font-size="14.00" fill="#000000">user_name </text>
<text text-anchor="start" x="1159.8595" y="-69.4" font-family="Arial" font-size="14.00" fill="#666666">[varchar(255)]</text>
<text text-anchor="start" x="1246.9787" y="-69.4" font-family="Arial" font-size="14.00" fill="#000000"> ユーザ名</text>
</g>
</g>
</svg>
